<?xml version="1.0" encoding="utf-8"?>
<!-- Generator: Adobe Illustrator 23.0.1, SVG Export Plug-In . SVG Version: 6.00 Build 0)  -->
<svg version="1.1" id="Layer_1" xmlns="http://www.w3.org/2000/svg" xmlns:xlink="http://www.w3.org/1999/xlink" x="0px" y="0px"
	 viewBox="0 0 31.4 32.1" style="enable-background:new 0 0 31.4 32.1;" xml:space="preserve">
<style type="text/css">
	.st0{clip-path:url(#SVGID_2_);}
	.st1{fill:none;}
	.st2{fill:#3F3140;}
	.st3{fill:#FFFFFF;}
</style>
<title>arrowright</title>
<g>
	<defs>
		<rect id="SVGID_1_" x="15.4" y="0" width="16" height="15"/>
	</defs>
	<clipPath id="SVGID_2_">
		<use xlink:href="#SVGID_1_"  style="overflow:visible;"/>
	</clipPath>
	<g id="a" class="st0">
		<rect x="15.4" y="0" class="st1" width="16" height="15"/>
		<path class="st2" d="M23.3,1l-1.2,1.2l4.5,4.5h-9.8v1.7h9.8l-4.5,4.4l1.2,1.2l6.5-6.5L23.3,1z"/>
		<path class="st2" d="M23.4,16.8l1.2,1.2l-4.5,4.5h9.8v1.7h-9.8l4.5,4.4l-1.2,1.2l-6.5-6.5L23.4,16.8z"/>
	</g>
</g>
<path class="st3" d="M30.9-17.1c0.2,0,0.3,0,0.4,0c3.1,0,6.2,0,9.4,0c0.3,0,0.4,0.1,0.3,0.3c0,0.4,0,0.8,0,1.1
	c0,0.3-0.1,0.3-0.3,0.3c-3.1,0-6.2,0-9.2,0c-0.2,0-0.3,0-0.5,0c0,0.1,0.1,0.2,0.2,0.3c1.4,1.4,2.8,2.8,4.2,4.1
	c0.2,0.2,0.2,0.3,0,0.4c-0.3,0.3-0.6,0.6-0.8,0.9c-0.2,0.2-0.2,0.1-0.4,0c-1.3-1.4-2.7-2.7-4-4c-0.8-0.8-1.5-1.6-2.3-2.3
	c-0.2-0.2-0.1-0.2,0-0.4c2.1-2.1,4.2-4.2,6.4-6.4c0.2-0.2,0.2-0.2,0.4,0c0.3,0.3,0.5,0.6,0.8,0.8c0.2,0.2,0.2,0.3,0,0.4
	c-1.4,1.4-2.8,2.7-4.1,4.1C31-17.3,31-17.2,30.9-17.1z"/>
<path class="st2" d="M37.5-33.5c0-0.2-0.1-0.2-0.2-0.3c-1.4-1.4-2.8-2.8-4.2-4.2c-0.2-0.2-0.2-0.3,0-0.4c0.3-0.3,0.6-0.5,0.8-0.8
	c0.2-0.2,0.3-0.1,0.4,0c2,2,4,4,6,6c0.2,0.2,0.4,0.3,0.4,0.5c0,0.2-0.3,0.3-0.4,0.5c-2,2-4,4-6,6c-0.2,0.2-0.3,0.3-0.5,0
	c-0.2-0.3-0.5-0.6-0.8-0.8c-0.2-0.1-0.2-0.2,0-0.4c1.4-1.4,2.8-2.7,4.2-4.1c0.1-0.1,0.2-0.1,0.3-0.2c-0.2-0.1-0.3-0.1-0.4-0.1
	c-3.1,0-6.3,0-9.4,0c-0.3,0-0.4-0.1-0.3-0.3c0-0.4,0-0.7,0-1.1c0-0.3,0.1-0.4,0.4-0.4c3.1,0,6.2,0,9.3,0
	C37.2-33.5,37.3-33.5,37.5-33.5z"/>
</svg>
