<svg id="Layer_1" data-name="Layer 1" xmlns="http://www.w3.org/2000/svg" width="4.74mm" height="4.71mm" viewBox="0 0 13.43 13.35"><defs><style>.cls-1{fill:#fff;}</style></defs><title>arrowchat</title><path class="cls-1" d="M3.3,5.79h9.79c.28,0,.36.08.34.35a10.84,10.84,0,0,0,0,1.14c0,.28-.11.29-.32.29H3.35c0,.15.12.2.19.27L7.7,11.94c.17.16.19.25,0,.42a11.23,11.23,0,0,0-.83.86c-.16.19-.25.15-.4,0q-2-2-4-4C1.67,8.4.9,7.62.11,6.86,0,6.7,0,6.63.12,6.48L6.48.12c.16-.17.25-.15.39,0A10.83,10.83,0,0,0,7.7,1c.21.18.15.28,0,.44L3.56,5.51Z"/></svg>
