<svg xmlns="http://www.w3.org/2000/svg" xmlns:xlink="http://www.w3.org/1999/xlink" viewBox="0 0 141 53"><defs><style>.a{clip-path:url(#b);}.b{fill:#fff;}</style><clipPath id="b"><rect width="141" height="53"/></clipPath></defs><g id="a" class="a"><rect class="b" width="141" height="53"/><g transform="translate(70.866 26.435)"><g transform="translate(-70.867 -26.435)"><path class="b" d="M124.6,0H100.346V6.094h23.918c8.219,0,10.735,2.59,11.329,6.623H111.061c-9.112,0-13.179,3.53-13.179,11.446,0,7.983,4.118,11.542,13.35,11.542h30.43V15.3C141.662,5.008,136.088,0,124.6,0m11.125,29.611H111.882c-7.487,0-7.8-1.673-7.8-5.451,0-3.636.778-5.35,7.928-5.35h23.72Z"/><path class="b" d="M53.345,22.708H77.683c9.108,0,13.169-3.486,13.169-11.3,0-8-3.982-11.4-13.342-11.4H64.479C49.106,0,46.991,8.582,46.991,17.852s2.115,17.853,17.488,17.853H89.394v-6.05H64.9c-8.4,0-10.794-2.245-11.559-6.947M64.9,5.915H76.865c7.06,0,7.8,1.673,7.8,5.491,0,3.625-.749,5.212-7.928,5.212H53.029c.178-7.529,2.155-10.7,11.875-10.7"/><path class="b" d="M35.155,0,6.166,27.734V0H.145V35.712H6.5L20.418,22.38,36.245,35.712h9.514L24.877,18.232,43.856,0Z"/><path class="b" d="M1.519,44.876v2.988H1.54l1.919-2.988H5.1l-2.046,3.2,2.278,4.265h-1.7L2.077,49.276l-.559.846v2.216H0V44.876Z"/><path class="b" d="M6.326,51.919c-.7-.645-.821-1.837-.821-3.312,0-2.268.283-3.878,2.562-3.878a2.8,2.8,0,0,1,1.276.252l.273-.64.508.22-.319.732c.71.647.825,1.838.825,3.313,0,2.268-.284,3.878-2.563,3.878a2.786,2.786,0,0,1-1.275-.251l-.274.637-.507-.219Zm2.474-5.7a.769.769,0,0,0-.737-.377c-.895,0-1.043.773-1.043,2.769a12.2,12.2,0,0,0,.064,1.547H7.1ZM7.328,50.991a.748.748,0,0,0,.738.386c.9,0,1.045-.763,1.045-2.77a12.8,12.8,0,0,0-.063-1.547H9.025Z"/><path class="b" d="M11.527,44.876h2.54c1.243,0,2.141.458,2.141,1.891A1.561,1.561,0,0,1,15.07,48.4v.019a1.584,1.584,0,0,1,1.37,1.735c0,1.17-.581,2.185-2.352,2.185H11.527Zm1.517,3.062h.433c.834,0,1.213-.283,1.213-.983s-.349-.972-1.1-.972h-.55Zm0,3.292h.593c.726,0,1.221-.262,1.221-1.131s-.5-1.116-1.159-1.116h-.654Z"/><path class="b" d="M21.6,44.876v1.232H18.908v1.756h2.531V49.1H18.908v2.007H21.7v1.232H17.39V44.876Z"/><path class="b" d="M24.213,44.876l1.834,5.109h.021V44.876h1.393v7.462H25.729l-1.853-5.227h-.022v5.227H22.461V44.876Z"/><path class="b" d="M28.515,44.876h1.519v2.851H31.8V44.876h1.519v7.462H31.8V49.023H30.03v3.314H28.515Z"/><path class="b" d="M35.845,44.876H37.72l1.994,7.462h-1.58l-.35-1.579h-2l-.349,1.579h-1.58Zm.2,4.648H37.52l-.726-3.353h-.023Z"/><path class="b" d="M41.276,44.876l1.065,5.52h.031l1.118-5.52h1.57l-1.73,7.462H41.381l-1.729-7.462Z"/><path class="b" d="M47.37,44.876l1.836,5.109h.021V44.876h1.392v7.462h-1.73l-1.855-5.227h-.022v5.227H45.619V44.876Z"/><path class="b" d="M52.9,50.007v.22c0,.7.2,1.15,1,1.15a.863.863,0,0,0,.905-.919c0-.681-.347-.934-1.35-1.276-1.35-.461-1.97-1.015-1.97-2.259a2.055,2.055,0,0,1,2.329-2.194c1.35,0,2.329.574,2.329,2.007v.208h-1.45c0-.7-.24-1.106-.82-1.106A.773.773,0,0,0,53,46.7c0,.461.137.742.781,1.013l1.168.5a1.905,1.905,0,0,1,1.436,1.975c0,1.58-.972,2.29-2.615,2.29-1.719,0-2.4-.795-2.4-2.173v-.3Z"/><path class="b" d="M63.884,44.876v1.232H61.2v1.756h2.53V49.1H61.2v2.007h2.794v1.232H59.678V44.876Z"/><path class="b" d="M64.75,44.876h2.8a1.776,1.776,0,0,1,2,1.923,1.635,1.635,0,0,1-1.25,1.839v.021c1.033.135,1.189.7,1.214,2.278.01.783.051,1.193.337,1.338v.062H68.208a1.432,1.432,0,0,1-.191-.783l-.042-1.433c-.021-.588-.283-.94-.9-.94h-.811v3.156H64.75Zm1.519,3.261H66.9c.73,0,1.14-.315,1.14-1.12a.93.93,0,0,0-1.055-1.033h-.716Z"/><path class="b" d="M70.612,44.876H72.13v2.851H73.9V44.876h1.519v7.462H73.9V49.023H72.131v3.314H70.612Z"/><path class="b" d="M77.6,44.876l1.064,5.52H78.7l1.118-5.52h1.57L79.66,52.338H77.71l-1.731-7.462Z"/><path class="b" d="M86.156,44.876v1.232H83.467v1.756H86V49.1H83.467v2.007h2.795v1.232H81.948V44.876Z"/><path class="b" d="M87.02,44.876h2.806a1.775,1.775,0,0,1,2,1.923c0,.991-.4,1.66-1.254,1.839v.021c1.032.135,1.19.7,1.211,2.278.01.783.054,1.193.339,1.338v.062H90.478a1.457,1.457,0,0,1-.188-.783l-.042-1.433c-.021-.588-.285-.94-.9-.94h-.813v3.156H87.02Zm1.518,3.261h.635c.726,0,1.138-.315,1.138-1.12a.93.93,0,0,0-1.055-1.033h-.718Z"/><path class="b" d="M94.014,44.876l1.065,5.52h.031l1.118-5.52H97.8l-1.73,7.462H94.118L92.39,44.876Z"/><path class="b" d="M99.58,50.007v.22c0,.7.2,1.15,1,1.15a.864.864,0,0,0,.908-.919c0-.681-.349-.934-1.35-1.276-1.35-.461-1.973-1.015-1.973-2.259a2.056,2.056,0,0,1,2.33-2.194c1.35,0,2.331.574,2.331,2.007v.208H101.37c0-.7-.243-1.106-.822-1.106a.773.773,0,0,0-.864.867c0,.461.138.742.779,1.013l1.172.5a1.912,1.912,0,0,1,1.436,1.975c0,1.58-.974,2.29-2.617,2.29-1.719,0-2.393-.795-2.393-2.173v-.3Z"/><path class="b" d="M105.3,44.876h1.877l1.993,7.462h-1.582l-.35-1.579h-2l-.349,1.579H103.3Zm.2,4.648h1.476l-.727-3.353h-.021Z"/><path class="b" d="M111.2,44.876v2.988h.019l1.921-2.988h1.645l-2.046,3.2,2.277,4.265h-1.708l-1.551-3.062-.559.846v2.216h-1.519V44.876Z"/><path class="b" d="M116.813,44.876h1.877l1.994,7.462H119.1l-.351-1.579h-2l-.35,1.579H114.82Zm.2,4.648h1.477l-.728-3.353h-.022Z"/><path class="b" d="M121.286,44.876h2.487c2.109,0,2.49,1.432,2.49,3.627,0,2.643-.569,3.835-2.585,3.835h-2.393ZM122.8,51.23h.675c1.055,0,1.267-.659,1.267-2.686,0-1.693-.14-2.56-1.3-2.56H122.8Z"/><path class="b" d="M131.471,44.876v1.232h-2.689v1.756h2.533V49.1h-2.533v2.007h2.795v1.232h-4.314V44.876Z"/><path class="b" d="M132.369,44.876h2.256l1.075,5.268h.021l1.086-5.268h2.246v7.462H137.66V46.379h-.02l-1.34,5.959h-1.18l-1.34-5.959h-.022v5.959h-1.39Z"/><path class="b" d="M140.214,52.338V44.876h1.519v7.462Z"/></g></g></g></svg>
