<svg xmlns="http://www.w3.org/2000/svg" xmlns:xlink="http://www.w3.org/1999/xlink" viewBox="0 0 321 119"><defs><style>.a{clip-path:url(#b);}.b{fill:#fff;}</style><clipPath id="b"><rect width="321" height="119"/></clipPath></defs><g id="a" class="a"><rect class="b" width="321" height="119"/><g transform="translate(161.116 60.1)"><g transform="translate(-161.116 -60.1)"><path d="M158.626,0H103.484V13.855h54.378c18.686,0,24.406,5.888,25.757,15.058H127.845c-20.716,0-29.963,8.026-29.963,26.023,0,18.149,9.362,26.241,30.351,26.241h69.183V34.785C197.417,11.386,184.744,0,158.626,0m25.293,67.321H129.711c-17.022,0-17.733-3.8-17.733-12.393,0-8.267,1.769-12.163,18.024-12.163H183.93Z" transform="translate(124.655)"/><path d="M61.437,51.617H116.77c20.707,0,29.94-7.925,29.94-25.691,0-18.188-9.053-25.918-30.333-25.918H86.75C51.8-.01,46.991,19.5,46.991,40.577S51.8,81.166,86.75,81.166H143.4V67.411H87.707c-19.1,0-24.54-5.1-26.28-15.794m26.28-38.179h27.2c16.051,0,17.733,3.8,17.733,12.484,0,8.242-1.7,11.85-18.024,11.85h-53.9c.4-17.117,4.9-24.327,27-24.327" transform="translate(59.844 0.01)"/><path d="M79.741,0,13.834,63.054V0H.145V81.192H14.591L46.236,50.881,82.219,81.192h21.63L56.374,41.451,99.523,0Z" transform="translate(0.185)"/><g transform="translate(0 100.81)"><path d="M3.453,44.876v6.793H3.5l4.363-6.793h3.731L6.943,52.151l5.179,9.7H8.248L4.722,54.879,3.451,56.8v5.038H0V44.876Z" transform="translate(0 -43.66)"/><path d="M7.372,61.57C5.78,60.1,5.505,57.393,5.505,54.04c0-5.156.643-8.817,5.825-8.817a6.366,6.366,0,0,1,2.9.573l.621-1.455,1.155.5-.725,1.664c1.614,1.471,1.876,4.179,1.876,7.532,0,5.156-.646,8.817-5.827,8.817a6.334,6.334,0,0,1-2.9-.571l-.623,1.448-1.153-.5ZM13,48.6a1.748,1.748,0,0,0-1.676-.857c-2.035,0-2.371,1.757-2.371,6.3a27.737,27.737,0,0,0,.146,3.517h.043ZM9.65,59.46a1.7,1.7,0,0,0,1.678.878c2.046,0,2.376-1.735,2.376-6.3a29.1,29.1,0,0,0-.143-3.517h-.052Z" transform="translate(7.011 -44.341)"/><path d="M11.527,44.876H17.3c2.826,0,4.868,1.041,4.868,4.3a3.549,3.549,0,0,1-2.587,3.713v.043A3.6,3.6,0,0,1,22.7,56.876c0,2.66-1.321,4.968-5.347,4.968H11.527Zm3.449,6.962h.984c1.9,0,2.758-.643,2.758-2.235s-.793-2.21-2.5-2.21h-1.25Zm0,7.484h1.348c1.651,0,2.776-.6,2.776-2.571s-1.137-2.537-2.635-2.537H14.978Z" transform="translate(14.68 -43.66)"/><path d="M26.962,44.876v2.8h-6.12v3.992H26.6v2.81H20.841v4.563h6.348v2.8h-9.8V44.876Z" transform="translate(22.146 -43.66)"/><path d="M26.444,44.876l4.17,11.615h.048V44.876h3.167V61.841H29.891L25.678,49.957h-.05V61.841H22.461V44.876Z" transform="translate(28.605 -43.66)"/><path d="M28.515,44.876h3.453v6.482h4.015V44.876h3.453V61.841H35.984V54.3H31.959v7.534H28.515Z" transform="translate(36.314 -43.66)"/><path d="M38.379,44.876h4.263l4.533,16.965H43.583l-.8-3.59H38.241l-.793,3.59H33.855Zm.455,10.567h3.353L40.537,47.82h-.052Z" transform="translate(43.115 -43.66)"/><path d="M43.344,44.876l2.421,12.55h.07l2.542-12.55h3.569L48.014,61.841H43.583L39.652,44.876Z" transform="translate(50.498 -43.66)"/><path d="M49.6,44.876l4.174,11.615h.048V44.876h3.165V61.841H53.053L48.836,49.957h-.05V61.841H45.619V44.876Z" transform="translate(58.097 -43.66)"/><path d="M54.831,56.753v.5c0,1.591.455,2.615,2.274,2.615a1.962,1.962,0,0,0,2.058-2.089c0-1.548-.789-2.123-3.069-2.9-3.069-1.048-4.479-2.308-4.479-5.136a4.672,4.672,0,0,1,5.3-4.988c3.069,0,5.3,1.305,5.3,4.563v.473h-3.3c0-1.591-.546-2.515-1.864-2.515a1.757,1.757,0,0,0-1.973,1.96c0,1.048.311,1.687,1.776,2.3L59.5,52.674a4.331,4.331,0,0,1,3.265,4.49c0,3.592-2.21,5.206-5.945,5.206-3.908,0-5.445-1.807-5.445-4.94v-.682Z" transform="translate(65.427 -43.871)"/><path d="M69.24,44.876v2.8h-6.1v3.992H68.89v2.81H63.138v4.563h6.352v2.8H59.678V44.876Z" transform="translate(76.001 -43.66)"/><path d="M64.75,44.9h6.366a4.038,4.038,0,0,1,4.547,4.372,3.717,3.717,0,0,1-2.842,4.181V53.5c2.349.307,2.7,1.591,2.76,5.179.023,1.78.116,2.712.766,3.042v.141H72.612a3.256,3.256,0,0,1-.434-1.78l-.1-3.258c-.048-1.337-.643-2.137-2.046-2.137H68.192v7.175H64.75ZM68.2,52.309h1.435c1.66,0,2.592-.716,2.592-2.546a2.114,2.114,0,0,0-2.4-2.349H68.2Z" transform="translate(82.46 -43.679)"/><path d="M70.612,44.876h3.451v6.482h4.024V44.876h3.453V61.841H78.087V54.3H74.065v7.534H70.612Z" transform="translate(89.926 -43.66)"/><path d="M79.664,44.876l2.419,12.55h.082l2.542-12.55h3.569L84.348,61.841H79.914L75.979,44.876Z" transform="translate(96.761 -43.66)"/><path d="M91.515,44.876v2.8H85.4v3.992H91.16v2.81H85.4v4.563h6.354v2.8H81.948V44.876Z" transform="translate(104.362 -43.66)"/><path d="M87.02,44.9H93.4a4.035,4.035,0,0,1,4.547,4.372c0,2.253-.909,3.774-2.851,4.181V53.5c2.346.307,2.705,1.591,2.753,5.179.023,1.78.123,2.712.771,3.042v.141H94.882a3.312,3.312,0,0,1-.427-1.78l-.1-3.258c-.048-1.337-.648-2.137-2.046-2.137H90.464v7.175H87.02Zm3.451,7.414h1.444c1.651,0,2.587-.716,2.587-2.546a2.114,2.114,0,0,0-2.4-2.349H90.471Z" transform="translate(110.822 -43.679)"/><path d="M96.082,44.876,98.5,57.426h.07l2.542-12.55h3.574l-3.933,16.965H96.319L92.39,44.876Z" transform="translate(117.66 -43.66)"/><path d="M101.514,56.753v.5c0,1.591.455,2.615,2.274,2.615a1.964,1.964,0,0,0,2.064-2.089c0-1.548-.793-2.123-3.069-2.9C99.714,53.829,98.3,52.57,98.3,49.742a4.674,4.674,0,0,1,5.3-4.988c3.069,0,5.3,1.305,5.3,4.563v.473h-3.31c0-1.591-.552-2.515-1.869-2.515a1.757,1.757,0,0,0-1.964,1.971c0,1.048.314,1.687,1.771,2.3l2.665,1.137a4.347,4.347,0,0,1,3.265,4.49c0,3.592-2.214,5.206-5.95,5.206-3.908,0-5.441-1.807-5.441-4.94V56.76Z" transform="translate(124.883 -43.871)"/><path d="M107.847,44.876h4.267l4.531,16.965h-3.6l-.8-3.59h-4.547l-.793,3.59H103.3Zm.455,10.567h3.356L110,47.82h-.048Z" transform="translate(131.555 -43.66)"/><path d="M113.137,44.876v6.793h.043l4.367-6.793h3.74l-4.652,7.275,5.177,9.7H117.93L114.4,54.886l-1.271,1.923v5.038h-3.453V44.876Z" transform="translate(139.678 -43.66)"/><g transform="translate(261.045 1.216)"><path d="M119.351,44.876h4.267l4.533,16.965h-3.6l-.8-3.59h-4.547l-.8,3.59h-3.59Zm.455,10.567h3.358l-1.655-7.623h-.05Z" transform="translate(-114.82 -44.876)"/><path d="M121.287,44.876h5.654c4.795,0,5.661,3.256,5.661,8.246,0,6.009-1.294,8.719-5.877,8.719h-5.441Zm3.442,14.446h1.535c2.4,0,2.881-1.5,2.881-6.107,0-3.849-.318-5.82-2.956-5.82h-1.46Z" transform="translate(-106.587 -44.876)"/><path d="M136.83,44.876v2.8h-6.113v3.992h5.759v2.81h-5.759v4.563h6.354v2.8h-9.808V44.876Z" transform="translate(-98.974 -44.876)"/><path d="M132.37,44.876H137.5l2.444,11.977h.048l2.469-11.977h5.106V61.841H144.4V48.293h-.045l-3.047,13.548h-2.683l-3.047-13.548h-.05V61.841h-3.16Z" transform="translate(-92.472 -44.876)"/><path d="M140.214,61.841V44.876h3.453V61.841Z" transform="translate(-82.48 -44.876)"/></g></g></g></g></g></svg>
