<svg xmlns="http://www.w3.org/2000/svg" xmlns:xlink="http://www.w3.org/1999/xlink" viewBox="0 0 22 22"><defs><style>.a{clip-path:url(#b);}.b{fill:none;}.c{fill:#3f3140;fill-rule:evenodd;}.d{fill:#fff;}</style><clipPath id="b"><rect width="22" height="22"/></clipPath></defs><g id="a" class="a"><rect class="d" width="22" height="22"/><g transform="translate(-207 -596)"><rect class="b" width="24.6" height="24.6" transform="translate(207 596)"/><path class="c" d="M9.268,13.376A3.929,3.929,0,0,0,13.2,9.439,4.05,4.05,0,0,0,9.268,5.362,3.929,3.929,0,0,0,5.332,9.3,4.149,4.149,0,0,0,9.268,13.376ZM2.661,2.691A9.344,9.344,0,0,1,15.876,15.906L9.268,22.514,2.661,15.906A9.6,9.6,0,0,1,2.661,2.691Z" transform="translate(208.513 596.05)"/></g></g></svg>
