<svg id="Layer_1" data-name="Layer 1" xmlns="http://www.w3.org/2000/svg" width="200" height="50.45" viewBox="0 0 200 50.45"><defs><style>.cls-1{fill:#fffdfd;}</style></defs><title>logo</title><path class="cls-1" d="M200,50.07c-15.33,0-30.67.22-46,0-13.64-.23-20.74-12.35-14.71-24.65,2.36-4.8,6.63-6.83,11.71-7.33,11.64-1.14,23.32-.25,35-.58,1.36,0,3.35.89,4-1,.57-1.73-.83-3.13-2.08-4.24C185,9.65,181.37,9,177.65,9c-10.67,0-21.34-.21-32,.06-3.91.1-4.64-1.27-4.7-4.86C140.88.37,142.5,0,145.68,0c9.66.17,19.33.06,29,.07,15.7,0,19.78,2.74,25.33,17Zm-29.39-9v.06h9.95c11.29,0,11.2,0,10.43-11.33-.16-2.47-1.09-3.07-3.32-3.05-11.28.09-22.56,0-33.84.19-5.35.1-7,2.14-6.89,7.48.09,4.8,1.78,6.47,7.24,6.62S165.13,41.12,170.61,41.12Z"/><path class="cls-1" d="M0,.07c9.14,0,9.14,0,9.14,9V37c2,.5,2.56-1,3.42-1.85,10.17-9.6,20.65-18.9,30.26-29,5.36-5.66,11.09-7,19-5.5C56,6.13,50.52,11.26,45.15,16.55c-3,3-8.51,5.63-8.28,9.16.19,2.91,5.65,5.5,8.83,8.18,6,5.1,12.14,10.16,19.07,16-7.85.57-14.3,1.48-19.7-4.53-3.52-3.92-8.36-6.64-12-10.44-3.26-3.36-5.27-2.46-7.9.51s-6,5.35-8.52,8.41C12.19,49.16,6.84,51.43,0,50.07Z"/><path class="cls-1" d="M102.64,50.17c-6.34-.48-14,.87-21.6-1-8-2-12.57-7-14.09-15a45.52,45.52,0,0,1-.21-16.86C68.83,6,75.46.27,87.1.1c8.49-.12,17-.1,25.48,0,10.31.12,15.42,5.19,15.64,15.3.22,10.43-4.76,16.21-15,16.53-11,.33-22,.06-33,.15-1.37,0-3.31-.85-4,.83s.59,3.24,1.67,4.45c2.76,3.11,6.55,3.76,10.45,3.78,11.16,0,22.32.18,33.48,0,3.62-.06,4.43,1.22,4.43,4.58s-.66,4.77-4.35,4.58C115.92,50,109.92,50.17,102.64,50.17ZM94.43,23.1v-.17c6.14,0,12.3.21,18.43-.07,4.61-.21,6.56-2.94,6.27-7.69-.27-4.47-2.63-6.22-6.69-6.24-8.63,0-17.27-.22-25.89.1-7.07.26-9.93,3.37-11.15,10.33-.5,2.81,0,3.9,3.09,3.79C83.8,23,89.12,23.1,94.43,23.1Z"/></svg>
