<svg xmlns="http://www.w3.org/2000/svg" xmlns:xlink="http://www.w3.org/1999/xlink" viewBox="0 0 18 18"><defs><style>.a{clip-path:url(#b);}.b{fill:none;}.c{fill:#3f3140;}.d{fill:#fff;}</style><clipPath id="b"><rect width="18" height="18"/></clipPath></defs><g id="a" class="a"><rect class="d" width="18" height="18"/><g transform="translate(97 -7834)"><rect class="b" width="16" height="16" transform="translate(-96 7835)"/><path class="c" d="M15.9,14.5l-3.3-3.3A6.847,6.847,0,0,0,14,7,6.957,6.957,0,0,0,7,0,6.957,6.957,0,0,0,0,7a6.957,6.957,0,0,0,7,7,6.847,6.847,0,0,0,4.2-1.4l3.3,3.3ZM2,7A4.951,4.951,0,0,1,7,2a4.951,4.951,0,0,1,5,5,4.951,4.951,0,0,1-5,5A4.951,4.951,0,0,1,2,7Z" transform="translate(-96 7835)"/></g></g></svg>
