<svg xmlns="http://www.w3.org/2000/svg" xmlns:xlink="http://www.w3.org/1999/xlink" viewBox="0 0 47 13"><defs><style>.a{clip-path:url(#b);}.b{fill:#fff;}</style><clipPath id="b"><rect width="47" height="13"/></clipPath></defs><g id="a" class="a"><rect class="b" width="47" height="13"/><g transform="translate(23.17 -5.15)"><g transform="translate(-23.17 5.15)"><path class="b" d="M106.488,0H98.544V2h7.832c2.691,0,3.515.849,3.71,2.17h-8.032c-2.984,0-4.315,1.156-4.315,3.75,0,2.615,1.348,3.781,4.371,3.781h9.964V5.013c0-3.372-1.826-5.013-5.586-5.013m3.643,9.7h-7.809c-2.452,0-2.554-.548-2.554-1.786,0-1.191.255-1.753,2.6-1.753h7.767Z" transform="translate(-65.733)"/><path class="b" d="M48.927,7.445H56.9c2.982,0,4.312-1.142,4.312-3.7,0-2.621-1.3-3.735-4.369-3.735H52.573c-5.034,0-5.726,2.809-5.726,5.846S47.54,11.7,52.573,11.7h8.158V9.721H52.713c-2.751,0-3.535-.735-3.785-2.276m3.785-5.5h3.917c2.312,0,2.554.548,2.554,1.8,0,1.188-.245,1.708-2.6,1.708H48.824c.058-2.467.706-3.505,3.888-3.505" transform="translate(-31.507 -0.005)"/><path class="b" d="M11.464,0,1.972,9.086V0H0V11.7H2.081L6.638,7.332,11.821,11.7h3.115L8.1,5.973,14.314,0Z"/></g></g></g></svg>
